<svg xmlns="http://www.w3.org/2000/svg" width="13.911" height="14.135" viewBox="0 0 13.911 14.135">
  <g id="Group_438" data-name="Group 438" transform="translate(-45.868 -212.656)">
    <path id="Union_6" data-name="Union 6" d="M1883.658,171.238c-1.173,0-2.15-.017-2.663-.042-.71-.034-1.153-.264-1.317-.679-.288-.731.53-1.6.7-1.773.016-.016,1.486-1.535,1.3-5.009a4.246,4.246,0,0,1,3.6-4.611l.111.819a3.388,3.388,0,0,0-2.878,3.749c.2,3.872-1.473,5.566-1.544,5.637-.31.312-.564.755-.511.889.013.033.148.133.581.154,1.852.091,10.181.01,11.1,0,.138-.065.313-.187.341-.29.02-.077-.061-.19-.111-.251-.184-.223-.379-.437-.563-.64-.545-.6-.978-1.076-1-1.568l.833-.042c.011.2.442.676.79,1.057.192.212.4.437.588.671a1.063,1.063,0,0,1,.27.991,1.515,1.515,0,0,1-.914.873l-.14.026c-.145,0-1.559.016-3.354.028a2.783,2.783,0,0,1-5.217.013Zm2.608,1.016a1.908,1.908,0,0,0,1.729-.934h-3.459A1.909,1.909,0,0,0,1886.266,172.254Z" transform="translate(-1833.641 53.645)" fill="#676767" stroke="#676767" stroke-miterlimit="10" stroke-width="0.2"/>
  </g>
</svg>
