<?xml version="1.0" encoding="utf-8"?>
<!-- Generator: Adobe Illustrator 25.2.3, SVG Export Plug-In . SVG Version: 6.00 Build 0)  -->
<svg version="1.1" xmlns="http://www.w3.org/2000/svg" xmlns:xlink="http://www.w3.org/1999/xlink" x="0px" y="0px"
	 viewBox="0 0 2915.3 2893.9" style="enable-background:new 0 0 2915.3 2893.9;" xml:space="preserve">
<style type="text/css">
	.st0{fill:#F4F7FA;}
	.st1{fill:url(#SVGID_1_);}
	.st2{opacity:0.5;clip-path:url(#SVGID_3_);}
	.st3{fill:#FFFFFF;}
	.st4{opacity:0.5;clip-path:url(#SVGID_6_);}
	.st5{fill:url(#SVGID_7_);}
	.st6{fill:url(#SVGID_8_);}
	.st7{fill:url(#SVGID_9_);}
	.st8{fill:url(#SVGID_10_);}
	.st9{fill:url(#SVGID_11_);}
	.st10{fill:url(#SVGID_12_);}
	.st11{fill:#BFC8D6;}
	.st12{fill:#D8DEE8;}
	.st13{opacity:0.48;fill:#FFFFFF;}
	.st14{fill:url(#SVGID_13_);}
	.st15{opacity:0.3;fill:#BFC8D6;}
	.st16{fill:url(#SVGID_14_);}
	.st17{opacity:0.74;fill:#FFFFFF;}
	.st18{fill:url(#SVGID_15_);}
	.st19{fill:url(#SVGID_16_);}
	.st20{opacity:0.9;fill:#FFFFFF;}
	.st21{clip-path:url(#SVGID_18_);}
	.st22{fill:url(#SVGID_19_);}
	.st23{fill:url(#SVGID_20_);}
	.st24{fill:url(#SVGID_21_);}
	.st25{fill:url(#SVGID_22_);}
	.st26{fill:url(#SVGID_23_);}
	.st27{fill:url(#SVGID_24_);}
	.st28{fill:url(#SVGID_25_);}
	.st29{opacity:0.42;fill:#FFFFFF;}
	.st30{fill:url(#SVGID_26_);}
	.st31{fill:url(#SVGID_27_);}
	.st32{fill:url(#SVGID_28_);}
	.st33{fill:url(#SVGID_29_);}
	.st34{fill:url(#SVGID_30_);}
	.st35{fill:url(#SVGID_31_);}
	.st36{fill:url(#SVGID_32_);}
	.st37{fill:url(#SVGID_33_);}
	.st38{opacity:0.3;}
	.st39{fill:url(#SVGID_34_);}
	.st40{fill:url(#SVGID_35_);}
	.st41{fill:url(#SVGID_36_);}
	.st42{fill:url(#SVGID_37_);}
	.st43{fill:url(#SVGID_38_);}
	.st44{fill:url(#SVGID_39_);}
	.st45{fill:url(#SVGID_40_);}
	.st46{opacity:0.3;fill:url(#SVGID_41_);}
	.st47{fill:url(#SVGID_42_);}
	.st48{fill:url(#SVGID_43_);}
	.st49{fill:url(#SVGID_44_);}
	.st50{fill:url(#SVGID_45_);}
	.st51{fill:url(#SVGID_46_);}
	.st52{fill:url(#SVGID_47_);}
</style>
<g id="Background">
</g>
<g id="Illustration">
	<g>
		<path class="st0" d="M2872.3,1223.1C2800.4,752.3,2505.5,173.9,1923,113.4c0,0-442.3-53.8-878.3,27.7
			c-258.8,48.4-485.7,192.5-629.3,399.5c-143.6,207-191.5,459.5-133.3,700.2c37.8,156.3,63.4,318.1,56.3,478.8
			c-12.2,279.6-5.2,540.6,266.1,707.3c242.3,148.9,547.2,280.2,838,303.2c197.7,15.6,419.4-9.7,609.9-61.1
			C3023.4,2406.7,2944.3,1693.8,2872.3,1223.1z"/>
		<g>
			
				<linearGradient id="SVGID_1_" gradientUnits="userSpaceOnUse" x1="5531.8052" y1="70.4029" x2="6383.8086" y2="70.4029" gradientTransform="matrix(0.7582 0.6521 -0.6521 0.7582 -2636.8223 -2298.3987)">
				<stop  offset="0" style="stop-color:#FF9085"/>
				<stop  offset="1" style="stop-color:#FB6FBB"/>
			</linearGradient>
			<path class="st1" d="M1544.9,2228.6c-82.5,22.8-146.7-72.2-94.7-140.2c16.1-21.1,31.5-43.9,45.6-68.4
				c104.8-182.2,50.6-301.7,145-631.5c59.7-208.5,103.4-353.4,229.4-404.5c98.7-40.1,236.2-17.7,303,60.1
				c55.6,64.7,68.9,175.5,62.4,250.4c-5.3,61.1-24.1,101.5,1.8,141.1c26.4,40.4,68.2,32.1,94.5,63.7c53.2,64.2-25,211.2-37.6,235
				c-140.6,264.4-449.2,387.8-584.5,439.9C1664.1,2191.8,1609,2210.9,1544.9,2228.6z"/>
			<g>
				<defs>
					<path id="SVGID_2_" d="M1518.4,2235.8c-75.3,19.6-132.3-68.9-82.8-128.9c21.5-26.1,41.9-55,60.2-86.8
						c104.8-182.2,50.6-301.7,145-631.5c59.7-208.5,103.4-353.4,229.4-404.5c98.7-40.1,236.2-17.7,303,60.1
						c55.6,64.7,68.9,175.5,62.4,250.4c-5.3,61.1-24.1,101.5,1.8,141.1c26.4,40.4,68.2,32.1,94.5,63.7c53.2,64.2-25,211.2-37.6,235
						c-140.6,264.4-449.2,387.8-584.5,439.9C1657.9,2194.2,1593.9,2216.1,1518.4,2235.8z"/>
				</defs>
				<clipPath id="SVGID_3_">
					<use xlink:href="#SVGID_2_"  style="overflow:visible;"/>
				</clipPath>
				<g class="st2">
					<path class="st3" d="M1118.3,2320.7l-0.8-7.1c132.2-14.8,249.9-42.7,349.7-83c147.2-59.4,251.1-144.1,308.8-252
						c45.2-84.5,61.4-179.9,83.9-312c17.9-105.5,21.1-181.8,23.9-249.2c3.7-88.1,6.5-157.8,41-251c34.9-94.6,91.8-183,169.1-262.7
						l5.1,5c-76.5,78.9-132.9,166.5-167.5,260.2c-34,92.2-36.9,161.3-40.5,248.8c-2.8,67.6-6,144.2-24,250.1
						c-21.7,127.8-38.8,228.7-84.6,314.2c-58.6,109.3-163.7,195.2-312.5,255.2C1369.5,2277.8,1251.2,2305.8,1118.3,2320.7z"/>
					<path class="st3" d="M1875.9,1593.8l-3.2-2.5c-0.6-0.5-61.6-48.7-112.2-137.1c-46.7-81.6-93.9-215.3-53.7-388.6l7,1.6
						c-39.7,171,6.9,302.9,52.9,383.4c43.4,75.8,94.3,121.5,107.3,132.5c104.5-172.1,234.9-263.5,326.1-309.8
						c99.7-50.6,175.6-60.1,176.4-60.2l0.8,7.1c-0.7,0.1-75.7,9.5-174.3,59.6c-90.9,46.3-221.2,137.7-325.1,310.5L1875.9,1593.8z"/>
					<path class="st3" d="M1819,1877.2l-0.9-2.4c-0.4-1.2-42.9-117.6-108.3-225.9c-65-107.7-261.2-189.7-263.1-190.5l2.7-6.6
						c2,0.8,200.3,83.8,266.5,193.5c60.5,100.2,101.5,207.3,108,224.7c230.6-11,587.2-452.4,590.8-456.8l5.6,4.5
						c-0.9,1.1-91.8,114.1-210.3,226.5c-159.4,151.4-290.1,229.8-388.4,233.1L1819,1877.2z"/>
					<path class="st3" d="M1647.2,2228c-79.9,0-130.9-6.7-131.7-6.8l-7.1-0.9l5-5.1c79-80.8,96.6-182.5,52.4-302.2
						c-33.1-89.6-90.3-156-90.8-156.7l5.4-4.7c0.6,0.7,58.6,68.1,92.2,158.9c43.7,118.2,26.7,223.3-49,304.4
						c25.9,2.8,120.7,11.2,244.5,0.8c134-11.3,330.4-47.6,505.4-156.4l340-211.4l3.8,6.1l-340,211.4
						c-176.2,109.6-373.9,146.1-508.8,157.4C1723.6,2226.7,1682.6,2228,1647.2,2228z"/>
				</g>
			</g>
		</g>
		<g>
			<g>
				<defs>
					<path id="SVGID_4_" d="M1377.4,2237c114.5,67.1,270,136.2,447.1,153.7c45.2,4.5,324.3,32,356.3-83.9
						c11.3-40.8-17.6-65-3.5-119.8c16.7-65,68-72.7,132.6-128.4c38.6-33.3,151.4-130.6,117.3-240.2
						c-20.4-65.5-92.3-132.4-163.9-154.1c-105.1-31.8-188.9,40-328.6,163.9c-123.8,109.8-131.4,149.9-222,227.5
						C1645.5,2113.2,1540,2185,1377.4,2237z"/>
				</defs>
				<linearGradient id="SVGID_5_" gradientUnits="userSpaceOnUse" x1="2084.0591" y1="1582.8706" x2="1831.453" y2="2260.9194">
					<stop  offset="0" style="stop-color:#AA80F9"/>
					<stop  offset="0.9964" style="stop-color:#6165D7"/>
				</linearGradient>
				<use xlink:href="#SVGID_4_"  style="overflow:visible;fill:url(#SVGID_5_);"/>
				<clipPath id="SVGID_6_">
					<use xlink:href="#SVGID_4_"  style="overflow:visible;"/>
				</clipPath>
				<g class="st4">
					<path class="st3" d="M1436.3,2238.6c-71.6,0-141.8-10.1-210.3-30.2c-132.8-39.1-254.6-113.1-361.9-220l5.1-5.1
						c106.5,106,227.2,179.4,358.9,218.2c175.4,51.7,362.1,36.4,555.1-45.2c201-85.1,358.4-220.9,455-319.9
						c66.8-68.5,114.1-159.7,140.6-271l7,1.7c-26.8,112.7-74.7,205-142.5,274.4c-97.1,99.5-255.2,236-457.3,321.5
						C1666.7,2213.3,1549.7,2238.6,1436.3,2238.6z"/>
					<path class="st3" d="M2026.5,2024.3l-0.5-3.2c-0.4-2.3-35.5-236.1,113-385.9l5.1,5c-136.5,137.7-115.1,348.2-111.5,376.6
						c334.2-18.2,436-200.3,459.3-255.9c0.7-1.6,1.1-2.5,1.3-2.8l6.2,3.6l-3.1-1.8l3.1,1.8c-0.2,0.3-0.4,1-0.9,2
						c-23.8,56.7-127.8,243-468.9,260.4L2026.5,2024.3z"/>
					<path class="st3" d="M2118.7,2293.6c-0.4,0-0.8,0-1.2,0c-75.1-0.2-193.7-23.4-331.9-132.7l-1.5-1.2l0.2-1.9
						c0.1-1.8,15.8-181,141-364.7l126.1-185l5.9,4l-126.1,185c-117.2,171.9-137.6,339.7-139.6,359.3
						c75.4,59.4,192.7,129.5,325.9,129.9c0.4,0,0.8,0,1.1,0c79.2,0,126.9-25.1,127.4-25.4l3.4,6.3
						C2247.5,2268.5,2199.7,2293.6,2118.7,2293.6z"/>
				</g>
			</g>
		</g>
		<g>
			<linearGradient id="SVGID_7_" gradientUnits="userSpaceOnUse" x1="2542.3777" y1="769.2845" x2="2162.9309" y2="661.909">
				<stop  offset="0" style="stop-color:#311944"/>
				<stop  offset="1" style="stop-color:#A03976"/>
			</linearGradient>
			<path class="st5" d="M2249.1,741.9c12.2,6.2,27.4,0.5,34.1-12.7c6.7-13.2,2.2-28.8-9.9-35c-0.6-0.3-1.3-0.6-1.9-0.8
				c2.3-7.3,4-14.6,5.1-22c0.7,0,1.4,0,2.1-0.1c13.9-1.2,24.9-14,24.6-28.5c-0.3-14.5-11.8-25.2-25.6-24c-0.7,0.1-1.4,0.2-2.1,0.3
				c-1.4-7.2-3.4-14.2-5.9-21c0.6-0.4,1.3-0.8,1.9-1.2c11.9-8.3,15.7-24.7,8.5-36.6c-7.2-11.9-22.6-14.9-34.5-6.5
				c-0.6,0.4-1.2,0.9-1.7,1.4c-4.7-5.2-9.8-10-15.4-14.4c0.4-0.6,0.8-1.3,1.1-2c6.7-13.2,15.4-27.5,3.2-33.5
				c-28.3-13.8-40.5-2-47.2,11.2c-0.3,0.7-0.6,1.4-0.9,2.1c-6.8-1.9-13.7-3.2-20.7-3.9c0-0.7,0.1-1.5,0.1-2.2
				c-0.3-14.5,4-22.3-9.9-22.6c-30.3-0.6-40.6,12.6-40.3,27.1c0,0.8,0.1,1.5,0.2,2.2c-7,2-13.8,4.5-20.4,7.6c-0.3-0.6-0.6-1.3-1-1.9
				c-7.2-11.9-22.6-14.8-34.5-6.5c-11.9,8.3-15.7,24.7-8.5,36.6c0.4,0.6,0.8,1.2,1.2,1.7c-5.3,5.3-10.2,11-14.7,17.1
				c-0.6-0.4-1.2-0.7-1.8-1c-12.2-6.2-27.4-0.5-34.1,12.7c-6.7,13.2-2.2,28.8,9.9,35c0.6,0.3,1.3,0.6,1.9,0.8
				c-2.3,7.3-4,14.6-5.1,22c-0.7,0-1.4,0-2.1,0.1c-13.9,1.2-24.9,14-24.6,28.5c0.3,14.5,11.8,25.2,25.6,24c0.7-0.1,1.4-0.2,2.1-0.3
				c1.4,7.2,3.4,14.2,5.9,21c-0.6,0.4-1.3,0.8-1.9,1.2c-11.9,8.3-15.7,24.7-8.5,36.6c7.2,11.9,31,17.5,42.8,9.2
				c0.6-0.4-7.2-3.5-6.6-4c4.7,5.2,9.8,10,15.4,14.4c-0.4,0.6-0.8,1.3-1.1,2c-6.7,13.2-2.2,28.8,9.9,35c12.2,6.2,27.4,0.5,34.1-12.7
				c0.3-0.7,0.6-1.4,0.9-2.1c6.8,1.9,13.7,3.2,20.7,3.9c0,0.7-0.1,1.5-0.1,2.2c0.3,14.5,11.8,25.2,25.6,24
				c13.9-1.2,24.9-14,24.6-28.5c0-0.8-0.1-1.5-0.2-2.2c7-2,13.8-4.5,20.4-7.6c0.3,0.6,0.6,1.3,1,1.9c7.2,11.9,22.6,14.9,34.5,6.5
				c11.9-8.3,15.7-24.7,8.5-36.6c-0.4-0.6-0.8-1.2-1.2-1.7c5.3-5.3,10.2-11,14.7-17.1C2247.9,741.3,2248.5,741.6,2249.1,741.9z
				 M2097.6,743.9c-44.1-22.4-60.2-79.3-36-127.1c24.3-47.8,79.7-68.3,123.8-45.9c44.1,22.4,60.2,79.3,36,127.1
				C2197.1,745.7,2141.7,766.3,2097.6,743.9z"/>
			<linearGradient id="SVGID_8_" gradientUnits="userSpaceOnUse" x1="2541.3828" y1="772.7987" x2="2161.9353" y2="665.423">
				<stop  offset="0" style="stop-color:#311944"/>
				<stop  offset="1" style="stop-color:#A03976"/>
			</linearGradient>
			<path class="st6" d="M2278.6,671.4c13.9-1.2,24.9-14,24.6-28.5c-0.3-14.5-11.8-25.2-25.6-24c-0.7,0.1-1.4,0.2-2.1,0.3
				c-1.4-7.2-3.4-14.2-5.9-21c0.6-0.4,1.3-0.8,1.9-1.2c11.9-8.3,26.5-28.4,18.2-39.5c-15.9-21.1-32.3-12-44.2-3.7
				c-0.6,0.4-1.2,0.9-1.7,1.4c-4.7-5.2-9.8-10-15.4-14.4c0.4-0.6,0.8-1.3,1.1-2c3.6-7.2,4-15.1,1.6-21.8
				c-11.5,20.2-22.8,40.4-33.9,60.8c35.2,25.8,46.4,76.6,24.4,120c-18.6,36.7-55.7,57.3-91.9,54.8c-1.6,4.2-3.2,8.4-4.9,12.5
				c-4.7,11.3-10,22.3-15.4,33.3c3.4,0.6,6.7,1.1,10.1,1.5c0,0.7-0.1,1.5-0.1,2.2c0.3,14.5,9.1,26.8,34.2,25.4
				c13.9-0.7,16.3-15.4,16-29.9c0-0.8-0.1-1.5-0.2-2.2c7-2,13.8-4.5,20.4-7.6c0.3,0.6,0.6,1.3,1,1.9c7.2,11.9,32.1,17,44,8.7
				c11.9-8.3,6.2-26.8-1-38.8c-0.4-0.6-0.8-1.2-1.2-1.7c5.3-5.3,10.2-11,14.7-17.1c0.6,0.4,1.2,0.7,1.8,1
				c12.2,6.2,27.4,0.5,34.1-12.7c6.7-13.2,2.2-28.8-9.9-35c-0.6-0.3-1.3-0.6-1.9-0.8c2.3-7.3,4-14.6,5.1-22
				C2277.2,671.5,2277.9,671.5,2278.6,671.4z"/>
			<linearGradient id="SVGID_9_" gradientUnits="userSpaceOnUse" x1="2152.9863" y1="529.4948" x2="2158.9199" y2="1008.6519">
				<stop  offset="0" style="stop-color:#FF9085"/>
				<stop  offset="1" style="stop-color:#FB6FBB"/>
			</linearGradient>
			<path class="st7" d="M2262.2,743.4c12.2,6.2,27.4,0.5,34.1-12.7c6.7-13.2,2.2-28.8-9.9-35c-0.6-0.3-1.3-0.6-1.9-0.8
				c2.3-7.3,4-14.6,5.1-22c0.7,0,1.4,0,2.1-0.1c13.9-1.2,24.9-14,24.6-28.5c-0.3-14.5-11.8-25.2-25.6-24c-0.7,0.1-1.4,0.2-2.1,0.3
				c-1.4-7.2-3.4-14.2-5.9-21c0.6-0.4,1.3-0.8,1.9-1.2c11.9-8.3,15.7-24.7,8.5-36.6c-7.2-11.9-22.6-14.9-34.5-6.5
				c-0.6,0.4-1.2,0.9-1.7,1.4c-4.7-5.2-9.8-10-15.4-14.4c0.4-0.6,0.8-1.3,1.1-2c6.7-13.2,2.2-28.8-9.9-35
				c-12.2-6.2-27.4-0.5-34.1,12.7c-0.3,0.7-0.6,1.4-0.9,2.1c-6.8-1.9-13.7-3.2-20.7-3.9c0-0.7,0.1-1.5,0.1-2.2
				c-0.3-14.5-11.8-25.2-25.6-24c-13.9,1.2-24.9,14-24.6,28.5c0,0.8,0.1,1.5,0.2,2.2c-7,2-13.8,4.5-20.4,7.6c-0.3-0.6-0.6-1.3-1-1.9
				c-7.2-11.9-22.6-14.9-34.5-6.5c-11.9,8.3-15.7,24.7-8.5,36.6c0.4,0.6,0.8,1.2,1.2,1.7c-5.3,5.3-10.2,11-14.7,17.1
				c-0.6-0.4-1.2-0.7-1.8-1c-12.2-6.2-27.4-0.5-34.1,12.7c-6.7,13.2-2.2,28.8,9.9,35c0.6,0.3,1.3,0.6,1.9,0.8
				c-2.3,7.3-4,14.6-5.1,22c-0.7,0-1.4,0-2.1,0.1c-13.9,1.2-24.9,14-24.6,28.5c0.3,14.5,11.8,25.2,25.6,24c0.7-0.1,1.4-0.2,2.1-0.3
				c1.4,7.2,3.4,14.2,5.9,21c-0.6,0.4-1.3,0.8-1.9,1.2c-11.9,8.3-15.7,24.7-8.5,36.6c7.2,11.9,22.6,14.9,34.5,6.5
				c0.6-0.4,1.2-0.9,1.7-1.4c4.7,5.2,9.8,10,15.4,14.4c-0.4,0.6-0.8,1.3-1.1,2c-6.7,13.2-2.2,28.8,9.9,35
				c12.2,6.2,27.4,0.5,34.1-12.7c0.3-0.7,0.6-1.4,0.9-2.1c6.8,1.9,13.7,3.2,20.7,3.9c0,0.7-0.1,1.5-0.1,2.2
				c0.3,14.5,11.8,25.2,25.6,24c13.9-1.2,24.9-14,24.6-28.5c0-0.8-0.1-1.5-0.2-2.2c7-2,13.8-4.5,20.4-7.6c0.3,0.6,0.6,1.3,1,1.9
				c7.2,11.9,22.6,14.9,34.5,6.5c11.9-8.3,15.7-24.7,8.5-36.6c-0.4-0.6-0.8-1.2-1.2-1.7c5.3-5.3,10.2-11,14.7-17.1
				C2260.9,742.7,2261.5,743.1,2262.2,743.4z M2110.7,745.4c-44.1-22.4-60.2-79.3-36-127.1c24.3-47.8,79.7-68.3,123.8-45.9
				c44.1,22.4,60.2,79.3,36,127.1C2210.2,747.2,2154.8,767.8,2110.7,745.4z"/>
		</g>
		<g>
			<linearGradient id="SVGID_10_" gradientUnits="userSpaceOnUse" x1="2498.5383" y1="547.2209" x2="1755.2457" y2="336.8846">
				<stop  offset="0" style="stop-color:#311944"/>
				<stop  offset="1" style="stop-color:#A03976"/>
			</linearGradient>
			<path class="st8" d="M1924,493.7c23.8,12.1,53.7,1,66.8-24.8c13.1-25.8,4.4-56.5-19.4-68.6c-1.2-0.6-2.5-1.2-3.8-1.7
				c4.4-14.3,7.8-28.6,10-43c1.4,0,2.7,0,4.1-0.2c27.2-2.4,48.7-27.4,48.1-55.7c-0.6-28.4-23-49.4-50.2-47c-1.4,0.1-2.8,0.4-4.2,0.6
				c-2.8-14.1-6.7-27.8-11.6-41.1c1.2-0.7,2.5-1.5,3.7-2.3c23.2-16.3,30.7-48.4,16.6-71.8c-14.1-23.4-44.3-29.1-67.6-12.8
				c-1.2,0.8-2.3,1.7-3.4,2.6c-9.2-10.1-19.2-19.5-30.1-28.1c0.8-1.3,1.5-2.5,2.2-3.9c13.1-25.8,30.2-53.9,6.2-65.6
				c-55.5-27.1-79.3-3.9-92.4,21.9c-0.7,1.3-1.3,2.7-1.8,4c-13.4-3.7-26.9-6.3-40.5-7.7c0.1-1.4,0.2-2.9,0.1-4.3
				c-0.6-28.4,7.8-43.7-19.4-44.2c-59.4-1.2-79.5,24.6-78.9,53c0,1.5,0.2,2.9,0.3,4.4c-13.6,3.9-27,8.8-40,14.9
				c-0.6-1.3-1.3-2.5-2-3.7c-14.1-23.4-44.3-29.1-67.6-12.8c-23.2,16.3-30.7,48.4-16.6,71.8c0.7,1.2,1.5,2.3,2.3,3.4
				c-10.3,10.3-19.9,21.5-28.8,33.5c-1.2-0.7-2.3-1.4-3.6-2.1c-23.8-12.1-53.7-1-66.8,24.8c-13.1,25.8-4.4,56.5,19.4,68.6
				c1.2,0.6,2.5,1.2,3.8,1.7c-4.4,14.3-7.8,28.6-10,43c-1.4,0-2.7,0-4.1,0.1c-27.2,2.4-48.7,27.4-48.1,55.7
				c0.6,28.4,23,49.4,50.2,47c1.4-0.1,2.8-0.3,4.2-0.6c2.8,14.1,6.7,27.8,11.6,41.1c-1.2,0.7-2.5,1.5-3.7,2.3
				c-23.2,16.3-30.7,48.4-16.6,71.8c14.1,23.4,60.7,34.2,83.9,17.9c1.2-0.8-14-6.8-12.9-7.8c9.2,10.1,19.2,19.5,30.1,28.1
				c-0.8,1.3-1.5,2.5-2.2,3.9c-13.1,25.8-4.4,56.5,19.4,68.6c23.8,12.1,53.7,1,66.8-24.8c0.7-1.3,1.3-2.7,1.8-4
				c13.4,3.7,26.9,6.3,40.5,7.7c-0.1,1.4-0.2,2.9-0.1,4.3c0.6,28.4,23,49.4,50.2,47c27.2-2.4,48.7-27.4,48.1-55.7
				c0-1.5-0.2-2.9-0.3-4.4c13.6-3.9,27-8.8,40-14.9c0.6,1.3,1.3,2.5,2,3.7c14.1,23.4,44.3,29.1,67.6,12.8
				c23.2-16.3,30.7-48.4,16.6-71.8c-0.7-1.2-1.5-2.3-2.3-3.4c10.3-10.3,19.9-21.5,28.8-33.5C1921.6,492.3,1922.8,493,1924,493.7z
				 M1627.3,497.4c-86.4-43.9-118-155.3-70.5-248.9c47.5-93.6,156.1-133.9,242.5-90c86.4,43.9,118,155.3,70.5,248.9
				C1822.3,501,1713.7,541.3,1627.3,497.4z"/>
			<linearGradient id="SVGID_11_" gradientUnits="userSpaceOnUse" x1="2496.5894" y1="554.1046" x2="1753.2955" y2="343.768">
				<stop  offset="0" style="stop-color:#311944"/>
				<stop  offset="1" style="stop-color:#A03976"/>
			</linearGradient>
			<path class="st9" d="M1981.8,355.5c27.2-2.4,48.7-27.4,48.1-55.7c-0.6-28.4-23-49.4-50.2-47c-1.4,0.1-2.8,0.4-4.2,0.6
				c-2.8-14.1-6.7-27.8-11.6-41.1c1.2-0.7,2.5-1.5,3.7-2.3c23.2-16.3,52-55.6,35.6-77.4c-31.1-41.4-63.3-23.5-86.5-7.2
				c-1.2,0.8-2.3,1.7-3.4,2.6c-9.2-10.1-19.2-19.5-30.1-28.1c0.8-1.3,1.5-2.5,2.2-3.9c7.1-14,7.8-29.5,3-42.6
				c-22.4,39.5-44.6,79.2-66.3,119c68.9,50.5,90.9,150.1,47.8,235c-36.5,71.9-109.1,112.3-180,107.3c-3.2,8.2-6.3,16.4-9.7,24.6
				c-9.2,22-19.6,43.6-30.1,65.2c6.6,1.2,13.2,2.2,19.8,2.9c-0.1,1.4-0.2,2.9-0.1,4.3c0.6,28.4,17.8,52.5,67,49.9
				c27.2-1.4,31.9-30.3,31.3-58.6c0-1.5-0.2-2.9-0.3-4.4c13.6-3.9,27-8.8,40-14.9c0.6,1.3,1.3,2.5,2,3.7
				c14.1,23.4,62.9,33.3,86.1,17c23.2-16.3,12.1-52.6-2-75.9c-0.7-1.2-1.5-2.3-2.3-3.4c10.3-10.3,19.9-21.5,28.8-33.5
				c1.2,0.7,2.3,1.4,3.6,2.1c23.8,12.1,53.7,1,66.8-24.8c13.1-25.8,4.4-56.5-19.4-68.6c-1.2-0.6-2.5-1.2-3.8-1.7
				c4.4-14.3,7.8-28.6,10-43C1979,355.6,1980.4,355.6,1981.8,355.5z"/>
			<linearGradient id="SVGID_12_" gradientUnits="userSpaceOnUse" x1="1735.7654" y1="77.4997" x2="1747.389" y2="1016.1146">
				<stop  offset="0" style="stop-color:#FF9085"/>
				<stop  offset="1" style="stop-color:#FB6FBB"/>
			</linearGradient>
			<path class="st10" d="M1949.6,496.6c23.8,12.1,53.7,1,66.8-24.8c13.1-25.8,4.4-56.5-19.4-68.6c-1.2-0.6-2.5-1.2-3.8-1.7
				c4.4-14.3,7.8-28.6,10-43c1.4,0,2.7,0,4.1-0.2c27.2-2.4,48.7-27.4,48.1-55.7c-0.6-28.4-23-49.4-50.2-47c-1.4,0.1-2.8,0.4-4.2,0.6
				c-2.8-14.1-6.7-27.8-11.6-41.1c1.2-0.7,2.5-1.5,3.7-2.3c23.2-16.3,30.7-48.4,16.6-71.8c-14.1-23.4-44.3-29.1-67.6-12.8
				c-1.2,0.8-2.3,1.7-3.4,2.6c-9.2-10.1-19.2-19.5-30.1-28.1c0.8-1.3,1.5-2.5,2.2-3.9c13.1-25.8,4.4-56.5-19.4-68.6
				c-23.8-12.1-53.7-1-66.8,24.8c-0.7,1.3-1.3,2.7-1.8,4c-13.4-3.7-26.9-6.3-40.5-7.7c0.1-1.4,0.2-2.9,0.1-4.3
				c-0.6-28.4-23-49.4-50.2-47c-27.2,2.4-48.7,27.4-48.1,55.7c0,1.5,0.2,2.9,0.3,4.4c-13.6,3.9-27,8.8-40,14.9
				c-0.6-1.3-1.3-2.5-2-3.7c-14.1-23.4-44.3-29.1-67.6-12.8c-23.2,16.3-30.7,48.4-16.6,71.8c0.7,1.2,1.5,2.3,2.3,3.4
				c-10.3,10.3-19.9,21.5-28.8,33.5c-1.2-0.7-2.3-1.4-3.6-2.1c-23.8-12.1-53.7-1-66.8,24.8c-13.1,25.8-4.4,56.5,19.4,68.6
				c1.2,0.6,2.5,1.2,3.8,1.7c-4.4,14.3-7.8,28.6-10,43c-1.4,0-2.7,0-4.1,0.1c-27.2,2.4-48.7,27.4-48.1,55.7
				c0.6,28.4,23,49.4,50.2,47c1.4-0.1,2.8-0.3,4.2-0.6c2.8,14.1,6.7,27.8,11.6,41.1c-1.2,0.7-2.5,1.5-3.7,2.3
				c-23.2,16.3-30.7,48.4-16.6,71.8c14.1,23.4,44.3,29.1,67.6,12.8c1.2-0.8,2.3-1.7,3.4-2.7c9.2,10.1,19.2,19.5,30.1,28.1
				c-0.8,1.3-1.5,2.5-2.2,3.9c-13.1,25.8-4.4,56.5,19.4,68.6c23.8,12.1,53.7,1,66.8-24.8c0.7-1.3,1.3-2.7,1.8-4
				c13.4,3.7,26.9,6.3,40.5,7.7c-0.1,1.4-0.2,2.9-0.1,4.3c0.6,28.4,23,49.4,50.2,47c27.2-2.4,48.7-27.4,48.1-55.7
				c0-1.5-0.2-2.9-0.3-4.4c13.6-3.9,27-8.8,40-14.9c0.6,1.3,1.3,2.5,2,3.7c14.1,23.4,44.3,29.1,67.6,12.8
				c23.2-16.3,30.7-48.4,16.6-71.8c-0.7-1.2-1.5-2.3-2.3-3.4c10.3-10.3,19.9-21.5,28.8-33.5C1947.2,495.2,1948.4,495.9,1949.6,496.6
				z M1652.9,500.3c-86.4-43.9-118-155.3-70.5-248.9c47.5-93.6,156.1-133.9,242.5-90c86.4,43.9,118,155.3,70.5,248.9
				C1847.9,503.9,1739.3,544.2,1652.9,500.3z"/>
		</g>
		<g>
			<g>
				<path class="st11" d="M2889.6,2555L69.1,2530.7v72.1c0,19.6,12.3,36.2,29,39.2L895.6,2784c9.5,1.7,19.1,2.1,28.6,1.3l1934.8-162
					c17.3-1.4,30.7-18.1,30.7-38.3V2555z"/>
				<g>
					<path class="st11" d="M1899.7,1174.6v1206.8c0,15.2-5.5,29.4-14.4,40c-8.6,10.3-20.5,17.1-33.5,18.1L555.6,2535l-483.2,35.8
						h-0.1l-3.3,0.1l-10.5,0.6c-32.1,2.4-58.6-22.8-58.6-56.2v-1335c0-33.3,26.9-61.2,59-61.2h1792.7
						C1878.1,1119.2,1899.7,1144.5,1899.7,1174.6z"/>
					<path class="st3" d="M1928.3,1174.6v1206.8c0,23.3-12.9,44-30.9,53.2c-0.3,0.1-0.6,0.3-0.9,0.4c-1.7,0.8-3.5,1.6-5.3,2.2
						c-0.4,0.1-0.8,0.3-1.2,0.4c-0.3,0.1-0.7,0.2-1,0.3c-1.3,0.4-2.6,0.7-4,0.9c-1.6,0.3-3.2,0.5-4.9,0.7l-9.1,0.6L581.2,2535h-0.1
						l-493.6,36.4c-4.8,0.4-9.4,0.3-13.8-0.5c-0.4-0.1-0.8,0-1.3,0h-0.1c-1.1,0-2.5-0.7-3.6-1c-23-6.3-40-27.8-40-54.5v-1335
						c0-33.3,26.8-61.2,58.9-61.2h1792.7C1906.7,1119.2,1928.3,1144.5,1928.3,1174.6z"/>
					<path class="st12" d="M1824.4,2354.3L154.7,2469c-26.1,1.8-47.3-18.8-47.3-46V1254.2c0-27.2,21.2-49.3,47.3-49.5l1669.7-7.2
						c21.8-0.1,39.4,19.9,39.4,44.7v1064.5C1863.8,2331.6,1846.2,2352.8,1824.4,2354.3z"/>
					<path class="st3" d="M1047.2,1156.6c0,12.4-9.2,22.5-20.6,22.5c-11.4,0-20.7-10-20.7-22.4s9.3-22.5,20.7-22.5
						C1038,1134.1,1047.2,1144.1,1047.2,1156.6z"/>
					<path class="st13" d="M87.5,2571.4l1783.6-131.3l9.1-0.7c12.1-0.9,23.2-6.9,31.6-16c-128.4-7-208.1-52.6-259.5-99.6
						c-103.3-94.5-85.4-187.7-196.7-249.9c-138.9-77.5-248.1,20.7-353.5-76.2c-63.9-58.8-32.5-102.6-111.2-190.4
						c-87.1-97.2-143.8-64.6-231.3-152.1c-110.7-110.7-55.3-196.8-150.7-276.2c-115.6-96.4-240.4-7.2-350.5-99.6
						c-47.5-39.9-73.5-97.8-87.1-159.5H87.6c-32.1,0-58.2,27-58.2,60.3v1335C29.4,2548.7,55.5,2573.8,87.5,2571.4z"/>
				</g>
				<linearGradient id="SVGID_13_" gradientUnits="userSpaceOnUse" x1="727.9231" y1="2575.8323" x2="3548.49" y2="2575.8323">
					<stop  offset="0.494" style="stop-color:#EBEFF2"/>
					<stop  offset="1" style="stop-color:#FFFFFF"/>
				</linearGradient>
				<path class="st14" d="M1964.7,2432.1L69.1,2571l826.5,147.2c9.5,1.7,19.1,2.1,28.6,1.3L2889.6,2555l-894.8-122
					C1984.9,2431.7,1974.8,2431.4,1964.7,2432.1z"/>
				<polygon class="st12" points="345.7,2572.2 1923.9,2454.8 2412.3,2520.9 847.7,2646.4 				"/>
			</g>
		</g>
		<path class="st15" d="M1785,1119.2v1205c0,11.1-2.2,22-5.5,32.3c-4.5,14.6-12.3,28-22.1,39.5c-18.9,22.2-46.3,37.2-76.8,39.6
			l-1298,98l-76.5,5.8c-18.5,1.4-35.9-1.1-51.6-6.9c-31.5-11.4-54.9-35.8-64.2-66.8c-2.8-9.3-3.8-19.1-3.8-29.4v-1317H1785z"/>
		<g>
			<linearGradient id="SVGID_14_" gradientUnits="userSpaceOnUse" x1="213.7434" y1="1428.644" x2="1813.6868" y2="1428.644">
				<stop  offset="3.597120e-03" style="stop-color:#E38DDD"/>
				<stop  offset="1" style="stop-color:#9571F6"/>
			</linearGradient>
			<path class="st16" d="M1709.7,385.5L334.7,343.1c-66.6-2.1-121,46.5-121,108.5v1959.1c0,62,54.3,108.1,121,103.1l1374.9-103.7
				c57.6-4.3,104-54.2,104-111.3V492.2C1813.7,435,1767.3,387.3,1709.7,385.5z"/>
			<path class="st17" d="M252.5,2419.7V440.9c0-35.7,31.2-63.7,69.7-62.5L1720.5,419c33.2,1,60.1,28.5,60.1,61.5v1831.3
				c0,33-26.8,61.7-60.1,64.2L322.2,2479.1C283.8,2482,252.5,2455.4,252.5,2419.7z"/>
			<linearGradient id="SVGID_15_" gradientUnits="userSpaceOnUse" x1="1022.2165" y1="429.2836" x2="885.5657" y2="1664.4027">
				<stop  offset="0" style="stop-color:#40447E"/>
				<stop  offset="0.9964" style="stop-color:#3C3B6B"/>
			</linearGradient>
			<path class="st18" d="M1709.7,385.5L334.7,343.1c-66.6-2.1-121,46.5-121,108.5v80.5l1599.9,34.3v-74.2
				C1813.7,435,1767.3,387.3,1709.7,385.5z"/>
			<path class="st3" d="M428.5,446.3c0,20.1-17.5,35.9-39.1,35.4c-21.6-0.5-39.2-17.3-39.2-37.4c0-20.1,17.6-36,39.2-35.4
				C411.1,409.5,428.5,426.2,428.5,446.3z"/>
			<path class="st3" d="M564.6,449.8c0,19.9-17.2,35.7-38.5,35.2c-21.4-0.5-38.7-17.2-38.7-37.2c0-20,17.3-35.8,38.7-35.2
				C547.3,413.3,564.6,429.9,564.6,449.8z"/>
			<path class="st3" d="M698.8,453.3c0,19.8-17,35.4-38,34.9c-21.1-0.5-38.2-17-38.2-36.9c0-19.9,17.1-35.5,38.2-34.9
				C681.8,417,698.8,433.5,698.8,453.3z"/>
			<g>
				<g>
					<linearGradient id="SVGID_16_" gradientUnits="userSpaceOnUse" x1="842.6002" y1="191.3128" x2="585.5446" y2="1305.2218">
						<stop  offset="3.597120e-03" style="stop-color:#E38DDD"/>
						<stop  offset="1" style="stop-color:#9571F6"/>
					</linearGradient>
					<path class="st19" d="M906.2,899.1c0,120.2-98.4,217.1-221.9,216.6c-125.9-0.6-229.7-101.8-229.7-226.2S558.4,668.2,684.3,673
						C807.8,677.8,906.2,778.9,906.2,899.1z"/>
					<path class="st20" d="M880.2,898.5c0,106.1-87,191.6-195.9,190.9c-110.8-0.7-202-90-202-199.4c0-109.4,91.2-194.8,202-190.7
						C793.2,703.3,880.2,792.4,880.2,898.5z"/>
					<g>
						<defs>
							<path id="SVGID_17_" d="M859.6,898.1c0,94.9-77.9,171.3-175.3,170.5c-98.9-0.8-180.1-80.5-180.1-178.1
								c0-97.5,81.2-173.8,180.1-170.4C781.7,723.5,859.6,803.2,859.6,898.1z"/>
						</defs>
						<clipPath id="SVGID_18_">
							<use xlink:href="#SVGID_17_"  style="overflow:visible;"/>
						</clipPath>
						<g class="st21">
							<linearGradient id="SVGID_19_" gradientUnits="userSpaceOnUse" x1="733.5363" y1="654.8258" x2="558.7707" y2="1391.8835">
								<stop  offset="3.597120e-03" style="stop-color:#E38DDD"/>
								<stop  offset="1" style="stop-color:#9571F6"/>
							</linearGradient>
							<path class="st22" d="M668.1,911.3c4.9,3.9,10.4,6.2,16.2,6.4c5.9,0.1,11.4-2,16.3-5.8c12.2-9.4,20.7-28.9,20.7-48.7
								c0-27.7-16.5-45.6-37-46.2c-20.5-0.6-37.2,16.5-37.2,44.4C647.2,881.4,655.7,901.4,668.1,911.3z"/>
							<linearGradient id="SVGID_20_" gradientUnits="userSpaceOnUse" x1="768.1902" y1="661.4413" x2="592.1908" y2="1403.7026">
								<stop  offset="3.597120e-03" style="stop-color:#E38DDD"/>
								<stop  offset="1" style="stop-color:#9571F6"/>
							</linearGradient>
							<path class="st23" d="M770.6,983.4c-3.6-7.4-8.3-14.4-13.3-20.7c-0.5-0.6-1.5-1.2-2.1-1.8c0-0.1-0.2-0.1-0.3-0.2
								c-0.2-0.2-0.4-0.4-0.5-0.5c-0.2-0.3-0.5-0.6-0.8-0.8c-0.1-0.2-0.2-0.3-0.4-0.4c-0.5-0.6-1.1-1.2-1.6-1.8
								c-0.1-0.1-0.2-0.2-0.3-0.3c-0.2-0.2-0.4-0.4-0.6-0.6c0,0-0.1-0.1-0.1-0.1c-0.2-0.2-0.3-0.3-0.5-0.5c-0.2-0.2-0.4-0.4-0.6-0.6
								c-0.1-0.1-0.2-0.3-0.4-0.4c-0.4-0.4-0.8-0.8-1.1-1.1c-0.1-0.1-0.2-0.1-0.2-0.2c-0.5-0.5-1-0.9-1.5-1.4
								c-0.2-0.2-0.4-0.4-0.6-0.6c-0.4-0.3-0.8-0.7-1.2-1c-0.1-0.1-0.2-0.2-0.3-0.2c-11.3-9.7-24.9-16.8-40-20.4
								c-0.5-0.1-1-0.2-1.5-0.3c0,0,0,0,0,0c0,0,0,0,0,0c-4.5-1-9-1.6-13.7-1.9c-1.6-0.1-3.1-0.2-4.7-0.3
								c-6.7-0.1-13.2,5.4-19.5,1.8h-0.2c0,0,0,0,0,0c0,0,0,0,0,0c0,0,0,0-0.1,0c0,0,0,0,0,0c-0.1,0-0.1,0-0.2-0.1c0,0,0,0.1,0,0.1
								c0,0,0,0,0,0c-29.3,7.2-53.6,25.4-65.3,51.8c-4.8,10.9-7.5,22.9-7.5,35.6v2.9l186.4,2.1v-2.9
								C777.8,1006.3,774.2,994.3,770.6,983.4L770.6,983.4z"/>
							<linearGradient id="SVGID_21_" gradientUnits="userSpaceOnUse" x1="632.5165" y1="627.3586" x2="456.4746" y2="1369.799">
								<stop  offset="3.597120e-03" style="stop-color:#E38DDD"/>
								<stop  offset="1" style="stop-color:#9571F6"/>
							</linearGradient>
							<path class="st24" d="M586.7,876.5c20.7,0.5,37.5-26.8,37.5-54.8c0-27.9-16.8-46-37.5-46.6c-20.8-0.6-37.7,16.5-37.7,44.6
								S565.9,876,586.7,876.5z"/>
							<linearGradient id="SVGID_22_" gradientUnits="userSpaceOnUse" x1="644.5673" y1="639.9768" x2="474.9049" y2="1355.5123">
								<stop  offset="3.597120e-03" style="stop-color:#E38DDD"/>
								<stop  offset="1" style="stop-color:#9571F6"/>
							</linearGradient>
							<path class="st25" d="M648.4,913.4c0.1,0,0.1-2.1,0.1-2.1h0c1.2,0,2.5,2.1,3.8,0.7c0.1,0.1,0,1.2,0.1,1.3
								c0,0-0.1,1.1-0.1,1.1v0l0.4-3h0c0,0,0,0.1,0,0.1l-0.1-0.1h0c-3.6,0-7.5-5.4-11.6-8.4c0.1,0.1,0.1,0.8,0.2,0.9
								c0,0-0.1,0.3-0.1,0.3c-15.2-11-33-17.6-53.3-18c-51.9-1.1-93.1,39.2-93.1,89.8v0.5l87.1,1.3c0,0-0.7,0.4-0.6,0.3
								C592.3,947.3,616.8,923,648.4,913.4z"/>
							<linearGradient id="SVGID_23_" gradientUnits="userSpaceOnUse" x1="718.0614" y1="642.762" x2="538.2772" y2="1400.9851">
								<stop  offset="3.597120e-03" style="stop-color:#E38DDD"/>
								<stop  offset="1" style="stop-color:#9571F6"/>
							</linearGradient>
							<path class="st26" d="M652.7,914.6c0.7,0.4,1.1,0.8,1.5,1.3C653.8,915.4,653.4,915,652.7,914.6L652.7,914.6z"/>
							<linearGradient id="SVGID_24_" gradientUnits="userSpaceOnUse" x1="814.539" y1="677.39" x2="641.1331" y2="1408.713">
								<stop  offset="3.597120e-03" style="stop-color:#E38DDD"/>
								<stop  offset="1" style="stop-color:#9571F6"/>
							</linearGradient>
							<path class="st27" d="M779.3,880.8c20.1,0.5,36.4-26.5,36.4-54c0-27.5-16.3-45.3-36.4-45.9c-20.2-0.6-36.6,16.3-36.6,44
								C742.7,852.6,759.1,880.4,779.3,880.8z"/>
							<linearGradient id="SVGID_25_" gradientUnits="userSpaceOnUse" x1="849.1727" y1="694.9145" x2="682.299" y2="1398.6893">
								<stop  offset="3.597120e-03" style="stop-color:#E38DDD"/>
								<stop  offset="1" style="stop-color:#9571F6"/>
							</linearGradient>
							<path class="st28" d="M776.4,890.4c-18.9-0.4-35.1,4.9-49.7,14.4c-4.7,3-8.4,6.5-12.5,10.4c0,0,0.4,0,0.4,0
								c1.7,0.5,3.6-0.4,5.2,0.2c31.4,11.2,54.4,39.1,65.3,65.4l78.6,1.2v-0.5C863.8,932.3,826.4,891.5,776.4,890.4z"/>
						</g>
					</g>
				</g>
				<polygon class="st3" points="1562.7,778.2 1039.4,761.3 1039.4,699.1 1562.7,718.6 				"/>
				<polygon class="st3" points="1673.8,914 1039.4,900.3 1039.4,838.1 1673.8,854.9 				"/>
				<polygon class="st3" points="1673.8,1046.1 1039.4,1039.4 1039.4,977.2 1673.8,987 				"/>
				<polygon class="st3" points="1673.8,2001.9 354.8,2092.3 354.8,2026.8 1673.8,1942.8 				"/>
				<polygon class="st3" points="1673.8,2130.5 354.8,2234.9 354.8,2173.2 1673.8,2074.9 				"/>
				<g>
					<g>
						<polygon class="st29" points="1000,1831.7 354.8,1864.9 354.8,1236.5 1000,1233.5 						"/>
						<g>
							<polygon class="st3" points="939.1,1377.6 415.8,1385.9 415.8,1320.6 939.1,1314.9 							"/>
							<polygon class="st3" points="939.1,1502.9 415.8,1516.4 415.8,1455 939.1,1444 							"/>
							<polygon class="st3" points="939.1,1632 415.8,1650.7 415.8,1585.5 939.1,1569.3 							"/>
							<polygon class="st3" points="939.1,1757.4 415.8,1781.2 415.8,1715.9 939.1,1694.7 							"/>
						</g>
					</g>
					<g>
						<polygon class="st29" points="1673.8,1796.9 1103.9,1826.3 1103.9,1233 1673.8,1230.3 						"/>
						<g>
							<polygon class="st3" points="1243.7,1761.5 1164.9,1765.1 1164.9,1569.5 1243.7,1567.1 							"/>
							<polygon class="st3" points="1369.2,1755.6 1290.3,1759.4 1290.3,1454.5 1369.2,1452.7 							"/>
							<polygon class="st3" points="1498.2,1749.6 1415.8,1753.3 1415.8,1355.7 1498.2,1354.6 							"/>
							<polygon class="st3" points="1612.9,1744.1 1541.2,1747.6 1541.2,1290.7 1612.9,1290 							"/>
						</g>
					</g>
				</g>
			</g>
		</g>
		<g>
			
				<linearGradient id="SVGID_26_" gradientUnits="userSpaceOnUse" x1="-1152.0073" y1="1361.4495" x2="-808.0452" y2="3011.0093" gradientTransform="matrix(-1 0 0 1 1037.5756 0)">
				<stop  offset="0" style="stop-color:#FFC444"/>
				<stop  offset="0.9964" style="stop-color:#F36F56"/>
			</linearGradient>
			<path class="st30" d="M2027.5,1413.3c-34.6-37,61.2-175.8,112.5-236.6c44.8-53.1,90.9-107.8,147.4-100.9
				c49.6,6.1,98,58.4,100.9,108.6C2396,1319.5,2076.7,1465.9,2027.5,1413.3z"/>
			
				<linearGradient id="SVGID_27_" gradientUnits="userSpaceOnUse" x1="2670.9009" y1="2806.3206" x2="2790.0464" y2="2806.3206" gradientTransform="matrix(0.9996 2.890000e-02 -2.890000e-02 0.9996 -255.79 -18.0469)">
				<stop  offset="0" style="stop-color:#444B8C"/>
				<stop  offset="0.9964" style="stop-color:#26264F"/>
			</linearGradient>
			<path class="st31" d="M2443.1,2840c6.5,5.3,7.7,18.5,8.5,27.2c0.4,3.9,0.5,5.8,0.1,7.2c-3.1,9.9-22.4,11-52.7,14.1
				c-47.8,4.9-62,8.6-65.8,1.5c-3.5-6.7,5-17.6,5.9-18.8c5.1-6.5,11.4-8.8,23.6-12.8c22.6-7.4,37.8-11.5,42.4-12.7
				C2434,2837.9,2438.8,2836.5,2443.1,2840z"/>
			<linearGradient id="SVGID_28_" gradientUnits="userSpaceOnUse" x1="2409.8369" y1="2826.7424" x2="2452.5515" y2="2826.7424">
				<stop  offset="0" style="stop-color:#FFC444"/>
				<stop  offset="0.9964" style="stop-color:#F36F56"/>
			</linearGradient>
			<path class="st32" d="M2414.6,2796.3l-4.8,54.5c1.4,2.6,17.6,10.5,30.4,3.8l12.3-53.6L2414.6,2796.3z"/>
			
				<linearGradient id="SVGID_29_" gradientUnits="userSpaceOnUse" x1="3017.8274" y1="2314.6194" x2="3144.4119" y2="2314.6194" gradientTransform="matrix(0.9642 0.2651 -0.2651 0.9642 -349.9818 -200.2397)">
				<stop  offset="0" style="stop-color:#444B8C"/>
				<stop  offset="0.9964" style="stop-color:#26264F"/>
			</linearGradient>
			<path class="st33" d="M2063.8,2833c7.8,8.6,9.6,24.5,2.8,32.3c-6.7,7.7-16.7,1.9-45.2,2.8c-30.5,0.9-38.5,8.1-59.2,2.4
				c-8.4-2.3-23.2-7.9-22.9-13.9c0.2-4.2,7.7-6.4,32.9-14.8c35.7-12,35.5-12.6,43.1-13.9C2034.4,2824.7,2053.5,2821.6,2063.8,2833z"
				/>
			<linearGradient id="SVGID_30_" gradientUnits="userSpaceOnUse" x1="2029.0043" y1="2812.6401" x2="2081.7605" y2="2812.6401">
				<stop  offset="0" style="stop-color:#FFC444"/>
				<stop  offset="0.9964" style="stop-color:#F36F56"/>
			</linearGradient>
			<path class="st34" d="M2044.3,2783.2l-15.3,50.9c1.2,2.7,16.7,11.8,30,6.1l22.7-49.4L2044.3,2783.2z"/>
			
				<linearGradient id="SVGID_31_" gradientUnits="userSpaceOnUse" x1="-950.2042" y1="2625.5044" x2="-1287.8285" y2="1864.4187" gradientTransform="matrix(-1 0 0 1 1037.5756 0)">
				<stop  offset="0" style="stop-color:#40447E"/>
				<stop  offset="0.9964" style="stop-color:#3C3B6B"/>
			</linearGradient>
			<path class="st35" d="M2180.2,1669.1c-2.2,171-13.9,363.2-41.8,572c-27.7,206.4-66.4,392.9-108.7,556.9
				c19.5,5.2,39,10.5,58.5,15.7c49.5-46.2,111.9-118.8,142.1-221.5c18.7-63.7,12.5-96.5,24.3-174.9
				c18.9-124.8,57.1-190.2,96.7-290.8c35.5-90.4,77.5-223.2,100.1-400.6C2360.9,1707.1,2270.5,1688.1,2180.2,1669.1z"/>
			
				<linearGradient id="SVGID_32_" gradientUnits="userSpaceOnUse" x1="-1553.2426" y1="2440.9209" x2="-1890.8608" y2="1679.8489" gradientTransform="matrix(-0.9925 -0.1225 -0.1225 0.9925 911.0101 48.6753)">
				<stop  offset="0" style="stop-color:#40447E"/>
				<stop  offset="0.9964" style="stop-color:#3C3B6B"/>
			</linearGradient>
			<path class="st36" d="M2356.3,1652.8c11.9,217.4,21.8,438.9,29.2,664.3c5.6,169.1,9.7,336.1,12.4,500.9
				c19.9,2.5,39.9,4.9,59.8,7.4c19.3-35.9,44.8-90.7,62.4-160.9c21.3-85.3,16.4-136,25.7-224.5c10.5-99.2,25.7-120.8,52.6-245.9
				c54.7-254,82-380.9,21-459.9C2599.6,1708.5,2537.5,1644.2,2356.3,1652.8z"/>
			
				<linearGradient id="SVGID_33_" gradientUnits="userSpaceOnUse" x1="-1464.3141" y1="1426.5703" x2="-1120.3533" y2="3076.124" gradientTransform="matrix(-1 0 0 1 1037.5756 0)">
				<stop  offset="0" style="stop-color:#FFC444"/>
				<stop  offset="0.9964" style="stop-color:#F36F56"/>
			</linearGradient>
			<path class="st37" d="M2646.8,1106.3c-46.7-13.1-115.1-28.5-198.9-33.2c-119.5-6.8-179.2-10.1-221.6,18.3
				c-97.8,65.7-22.1,217.4-62.1,593.4c-5.7,53.7-7,107.8-11.1,161.6c-6.9,89.1-8.4,94-2.2,103c38.9,56.6,184-28.8,396.7,5
				c119,18.9,173,62.4,205.6,31c38-36.6,5.4-135.1-22.7-219.9c-32.2-97.3-52.1-98.6-70.4-171.9c-19.1-76.6-7.6-116.1-4.6-236.9
				C2656.9,1299,2656.6,1213,2646.8,1106.3z"/>
			<g class="st38">
				
					<linearGradient id="SVGID_34_" gradientUnits="userSpaceOnUse" x1="-1558.5978" y1="2469.0701" x2="-1407.6097" y2="1751.8796" gradientTransform="matrix(-1 0 0 1 1037.5756 0)">
					<stop  offset="0" style="stop-color:#FFC444"/>
					<stop  offset="0.9964" style="stop-color:#F36F56"/>
				</linearGradient>
				<path class="st39" d="M2357.5,1812.2c55.6-4.4,91.7,27.1,139.6,2.6c65.8-33.6,86.9-138.1,82.8-212.1
					c-6.4-112.4-70.5-142-59.5-214.6c6-39.3,34-91.4,134.7-144.7c1.3,44.8,1.1,83.1,0.3,113.4c-3,120.8-14.5,160.3,4.6,236.9
					c18.3,73.3,38.2,74.6,70.4,171.9c28.1,84.8,60.7,183.3,22.7,219.9c-32.6,31.4-86.6-12.1-205.6-31
					c-183.3-29.1-316.3,30.2-374.5,11C2243.4,1849.2,2307.2,1816.2,2357.5,1812.2z"/>
			</g>
			
				<linearGradient id="SVGID_35_" gradientUnits="userSpaceOnUse" x1="-1687.3177" y1="1277.844" x2="-1415.2378" y2="2582.6746" gradientTransform="matrix(-1 0 0 1 1037.5756 0)">
				<stop  offset="0" style="stop-color:#FFC444"/>
				<stop  offset="0.9964" style="stop-color:#F36F56"/>
			</linearGradient>
			<path class="st40" d="M2570.9,1114.1c39.7-32.6,119.5,4.3,140.9,14.2c119,55,225.9,203.4,199.4,360.2
				c-4,23.5-22.4,133.5-115.5,186.8c-84,48.1-197.5,35.7-288.4-32.4c-12.4-11-24.8-22-37.3-33.1c-12.2-13.2-24.4-26.4-36.7-39.6
				c19.2-16,51.9-39,97.7-53.8c60.4-19.5,104.4,15.5,132.5-11.1c19.4-18.4,19.4-50.8,14.6-70.4c-9.6-39.6-44.6-50.8-73.7-78.9
				C2536,1289.7,2523.4,1153.1,2570.9,1114.1z"/>
			<g>
				
					<linearGradient id="SVGID_36_" gradientUnits="userSpaceOnUse" x1="-1149.818" y1="1845.8367" x2="-1214.1953" y2="1663.434" gradientTransform="matrix(-1 0 0 1 1037.5756 0)">
					<stop  offset="0" style="stop-color:#311944"/>
					<stop  offset="1" style="stop-color:#893976"/>
				</linearGradient>
				<polygon class="st41" points="2000.4,1625.8 2532.5,1617.9 2391,1686.2 1999,1660.5 				"/>
				
					<linearGradient id="SVGID_37_" gradientUnits="userSpaceOnUse" x1="-1431.054" y1="1581.5631" x2="-1407.449" y2="1744.6528" gradientTransform="matrix(-1 0 0 1 1037.5756 0)">
					<stop  offset="0" style="stop-color:#311944"/>
					<stop  offset="1" style="stop-color:#893976"/>
				</linearGradient>
				<path class="st42" d="M2551.3,1632L2551.3,1632c0,10-6.2,18.9-15.6,22.3l-170,66.7l-0.8-46.2l167.6-56.9
					C2541.9,1615.2,2551.3,1622.2,2551.3,1632z"/>
			</g>
			<linearGradient id="SVGID_38_" gradientUnits="userSpaceOnUse" x1="2336.332" y1="1607.1637" x2="2469.7412" y2="1607.1637">
				<stop  offset="0" style="stop-color:#FFC444"/>
				<stop  offset="0.9964" style="stop-color:#F36F56"/>
			</linearGradient>
			<path class="st43" d="M2469.4,1600.5c3.3-0.7-15.9-38.9-31-34.5c-15.1,4.4-88.7,47.1-95.4,64.7c-6.7,17.6-6.7,17.6-6.7,17.6
				s32.1,2.5,52-4.2C2408.3,1637.3,2442.8,1606.5,2469.4,1600.5z"/>
			<g>
				<g>
					
						<linearGradient id="SVGID_39_" gradientUnits="userSpaceOnUse" x1="-963.3312" y1="1595.8474" x2="-1088.8438" y2="1417.6198" gradientTransform="matrix(-1 0 0 1 1037.5756 0)">
						<stop  offset="0" style="stop-color:#444B8C"/>
						<stop  offset="0.9964" style="stop-color:#26264F"/>
					</linearGradient>
					<path class="st44" d="M2350.8,1350.4l37.5,341.6c1.3,11.8-15.2,29.3-27,28.8l-550.3-33.8c-9-0.4-16.6-7.1-18.1-16l-69.1-329.9
						c-2.1-12,19.5-24.4,31.7-24.1l576.7,16.2C2341.8,1333.5,2349.7,1340.9,2350.8,1350.4z"/>
					
						<linearGradient id="SVGID_40_" gradientUnits="userSpaceOnUse" x1="-1204.0867" y1="1890.8113" x2="-929.4086" y2="1332.8719" gradientTransform="matrix(-1 0 0 1 1037.5756 0)">
						<stop  offset="0" style="stop-color:#311944"/>
						<stop  offset="1" style="stop-color:#893976"/>
					</linearGradient>
					<path class="st45" d="M2338.2,1360.4l37.5,341.6c1.3,11.8-8.2,21.9-20.1,21.4l-557.3-26.4c-9-0.4-16.6-7.1-18.1-16l-56.9-331.4
						c-2.1-12,7.4-22.9,19.6-22.6l576.7,16.2C2329.2,1343.5,2337.2,1350.8,2338.2,1360.4z"/>
				</g>
				
					<linearGradient id="SVGID_41_" gradientUnits="userSpaceOnUse" x1="-1338.2645" y1="1532.7073" x2="-734.8354" y2="1532.7073" gradientTransform="matrix(-1 0 0 1 1037.5756 0)">
					<stop  offset="0" style="stop-color:#311944"/>
					<stop  offset="1" style="stop-color:#893976"/>
				</linearGradient>
				<path class="st46" d="M2011,1616.9c48.7-20.6,31.5-60,88.9-109c75.8-64.6,153.1-36.6,180.1-86.7c8.4-15.6,12.4-39.9-2.2-79.2
					l41.8,1.2c9.6,0.3,17.6,7.6,18.6,17.2l37.5,341.6c1.3,11.8-8.2,21.9-20.1,21.4l-557.3-26.4c-9-0.4-16.6-7.1-18.1-16l-7.9-45.7
					c16.9-9.4,37.1-18,60.7-22.7C1914.9,1595.9,1955,1640.7,2011,1616.9z"/>
			</g>
			<linearGradient id="SVGID_42_" gradientUnits="userSpaceOnUse" x1="1763.0367" y1="1675.4059" x2="1853.0386" y2="1675.4059">
				<stop  offset="0" style="stop-color:#FFC444"/>
				<stop  offset="0.9964" style="stop-color:#F36F56"/>
			</linearGradient>
			<path class="st47" d="M1763.3,1649.2c-0.9-2.8,1-5.6,3.9-5.7c11.8-0.6,39.1-0.8,54.2,8.4c19.6,12,44.9,33.9,23.6,44.9l-19.9,10.3
				c-0.9,0.5-1.9,0.6-2.9,0.4c-7.1-1.6-36.9-8.2-40.1-9.8C1779,1696.2,1767.7,1662.5,1763.3,1649.2z"/>
			<g>
				<linearGradient id="SVGID_43_" gradientUnits="userSpaceOnUse" x1="2444.7551" y1="942.9239" x2="2421.7434" y2="1334.1188">
					<stop  offset="0" style="stop-color:#FFC444"/>
					<stop  offset="0.9964" style="stop-color:#F36F56"/>
				</linearGradient>
				<path class="st48" d="M2439,942.6c-0.3,35.4,3.7,63.5,7.4,82.8c4.3,22,7.4,27.7,11.3,32.4c5.9,7,14.9,12.8,65.7,25.4
					c27.6,6.8,31.2,6.7,31.8,9.4c3,13.4-72.3,58.9-150.2,48c-47.6-6.7-91-33.9-88.3-48.2c2.7-14.4,50.2-6.7,64.4-32.6
					c9.9-18.1-1.2-43.7-14.3-65C2379.5,971,2426.3,966.3,2439,942.6z"/>
				<g>
					
						<linearGradient id="SVGID_44_" gradientUnits="userSpaceOnUse" x1="2565.8557" y1="948.5341" x2="2475.7549" y2="719.6939" gradientTransform="matrix(1 3.700000e-03 -3.700000e-03 1 -79.2812 164.6245)">
						<stop  offset="0" style="stop-color:#311944"/>
						<stop  offset="1" style="stop-color:#6B3976"/>
					</linearGradient>
					<path class="st49" d="M2350.6,956.6c-11.2-14.9-11.9-41,1-57.5c11.1-14.2,28.7-16.2,39.2-17.4c30.4-3.5,68.8,9.2,82.2,37.2
						c7.9,16.6-9.2,51.1-11.9,57.3c-3,7-8.5,9.4-13.6,14.7c-7.1,7.3-18.1,19-36.1,38.6c-1.4-5.8-3.5-12.9-6.9-20.6
						c-1.3-3-6.5-14.6-14.4-24.3C2374.1,965.2,2361.3,970.7,2350.6,956.6z"/>
					<linearGradient id="SVGID_45_" gradientUnits="userSpaceOnUse" x1="2345.3784" y1="990.618" x2="2460.8164" y2="990.618">
						<stop  offset="0" style="stop-color:#FFC444"/>
						<stop  offset="0.9964" style="stop-color:#F36F56"/>
					</linearGradient>
					<path class="st50" d="M2437,1013c0,0-20,32.8-59.8,30.2c-35.7-2.3-40.9-82.3-18.1-99.3c7.6-5.7,22.8-8,35.2-4.5
						c7.3,2,9.8,5.1,21.8,8.2c11.1,2.9,14.2,1.6,17.5,4.5c4.2,3.5,7.2,12.1,0.3,35.5c6.8-6.9,15-9.5,20.8-6.8
						c0.9,0.4,3.4,2.1,4.7,4.6C2464.4,994.6,2456,1006.3,2437,1013z"/>
					
						<linearGradient id="SVGID_46_" gradientUnits="userSpaceOnUse" x1="2538.3308" y1="959.4918" x2="2448.1384" y2="730.4195" gradientTransform="matrix(1 3.700000e-03 -3.700000e-03 1 -79.2812 164.6245)">
						<stop  offset="0" style="stop-color:#311944"/>
						<stop  offset="1" style="stop-color:#6B3976"/>
					</linearGradient>
					<path class="st51" d="M2435.2,947.3c-1.7,1.3,3.5,7.7,3.9,16.8c0.8,17.6-17.1,38.8-35.3,40.6c-10.8,1.1-13.7-5.4-31.5-7.3
						c-11-1.2-20.2,0.2-25.9,1.5c-5.6,19.3-0.3,38.6,12.6,47.5c13.9,9.6,31.7,3.8,39.1,1.3c5-1.6,20.9-6.8,29.2-21.4
						c8.7-15.2,0.2-24.4,10.1-34.7c5-5.2,11.6-7.4,18-17.5c1.7-2.7,2.9-5.1,3.6-6.8C2449.9,957.6,2437.7,945.5,2435.2,947.3z"/>
					<linearGradient id="SVGID_47_" gradientUnits="userSpaceOnUse" x1="2356.4785" y1="1010.4549" x2="2381.8489" y2="1010.4549">
						<stop  offset="0" style="stop-color:#FFC444"/>
						<stop  offset="0.9964" style="stop-color:#F36F56"/>
					</linearGradient>
					<path class="st52" d="M2359.4,1006c0,0,7.7,4,21,3.3c0.6,0,1.4,0.2,1.4,0.5c0.3,1.3-8.2,6.9-16.1,4.7c-5.6-1.6-9.9-6.9-9.2-8.2
						C2356.9,1005.8,2358.1,1005.8,2359.4,1006z"/>
				</g>
			</g>
		</g>
	</g>
</g>
</svg>
