<svg xmlns="http://www.w3.org/2000/svg" width="15.13" height="15.128" viewBox="0 0 15.13 15.128">
    <g>
        <g>
            <path fill="#ff8761" d="M126.833 252.176l5.657-5.657a.829.829 0 0 0 0-1.17l-.5-.5a.829.829 0 0 0-1.17 0l-5.657 5.656-5.656-5.656a.829.829 0 0 0-1.17 0l-.5.5a.827.827 0 0 0 0 1.17l5.657 5.657-5.657 5.657a.829.829 0 0 0 0 1.17l.5.5a.829.829 0 0 0 1.17 0l5.656-5.656 5.657 5.656a.817.817 0 0 0 .585.242.818.818 0 0 0 .585-.242l.5-.5a.832.832 0 0 0 0-1.17z" transform="translate(0 0) translate(0 0) translate(-117.603 -244.612)"/>
        </g>
    </g>
</svg>
