<svg xmlns="http://www.w3.org/2000/svg" width="18.249" height="17.051">
    <defs>
        <style>
            .cls-1{fill:#676767}
        </style>
    </defs>
    <g id="Group_494" data-name="Group 494" transform="translate(-160.92 -182.834)">
        <g id="Group_489" data-name="Group 489">
            <g id="Group_488" data-name="Group 488">
                <ellipse id="Ellipse_30" data-name="Ellipse 30" class="cls-1" cx="1.724" cy="1.345" rx="1.724" ry="1.345" transform="translate(168.545 190.015)"/>
            </g>
        </g>
        <g id="Group_491" data-name="Group 491">
            <g id="Group_490" data-name="Group 490">
                <path id="Path_288" data-name="Path 288" class="cls-1" d="M170.269 187.428a3.932 3.932 0 1 0 3.932 3.932 3.936 3.936 0 0 0-3.932-3.932zm0 6.484a2.552 2.552 0 1 1 2.553-2.552 2.555 2.555 0 0 1-2.553 2.552z"/>
            </g>
        </g>
        <g id="Group_493" data-name="Group 493">
            <g id="Group_492" data-name="Group 492">
                <path id="Path_289" data-name="Path 289" class="cls-1" d="M178.427 189.854a13.336 13.336 0 0 0-3.081-3.264 8.247 8.247 0 0 0-10.576 0 13.441 13.441 0 0 0-3.1 3.259 2.754 2.754 0 0 0 0 3.031 13.4 13.4 0 0 0 3.1 3.259 8.82 8.82 0 0 0 5.29 1.917 9.564 9.564 0 0 0 6.379-2.841.69.69 0 0 0-.944-1.006 8.227 8.227 0 0 1-5.435 2.467c-3.349 0-6.125-2.863-7.238-4.554a1.378 1.378 0 0 1 0-1.514c1.113-1.692 3.889-4.555 7.238-4.555s6.109 2.866 7.211 4.559a1.38 1.38 0 0 1 0 1.506.69.69 0 0 0 1.156.752 2.759 2.759 0 0 0 0-3.016z"/>
            </g>
        </g>
        <path id="Line_62" data-name="Line 62" transform="translate(161.736 183.65)" style="fill:none;stroke:#676767;stroke-linecap:round;stroke-miterlimit:10;stroke-width:1.155px" d="m0 0 16.617 15.42"/>
    </g>
</svg>
