<?xml version="1.0" encoding="utf-8"?>
<!-- Generator: Adobe Illustrator 25.2.3, SVG Export Plug-In . SVG Version: 6.00 Build 0)  -->
<svg version="1.1" id="Layer_1" xmlns="http://www.w3.org/2000/svg" xmlns:xlink="http://www.w3.org/1999/xlink" x="0px" y="0px"
	 viewBox="0 0 566.4 515.6" style="enable-background:new 0 0 566.4 515.6;" xml:space="preserve">
<style type="text/css">
	.st0{fill-rule:evenodd;clip-rule:evenodd;fill:url(#SVGID_1_);}
	.st1{fill-rule:evenodd;clip-rule:evenodd;fill:#14508B;}
	.st2{fill:#14508B;}
	.st3{fill-rule:evenodd;clip-rule:evenodd;fill:url(#SVGID_2_);}
	.st4{fill-rule:evenodd;clip-rule:evenodd;fill:url(#SVGID_3_);}
</style>
<g id="Layer_x0020_1">
	
		<linearGradient id="SVGID_1_" gradientUnits="userSpaceOnUse" x1="11852.2021" y1="15861.0781" x2="11852.2021" y2="28525.7871" gradientTransform="matrix(2.834646e-02 0 0 2.834646e-02 -27.468 -325.6559)">
		<stop  offset="0" style="stop-color:#16B8E0"/>
		<stop  offset="1" style="stop-color:#14508B"/>
	</linearGradient>
	<path class="st0" d="M308.6,515.6c3.1,0,6.1-0.1,9.1-0.2c136.5-4.8,246.1-115.7,248.6-252.8l0,0v-1.2c0-1.2,0-2.4,0-3.6
		s0-2.4,0-3.6V1.3H496v17.3v244l0,0v1.1v0.3l0,0c-3.2,97.7-81,176.4-178.3,181.1c-3,0.1-6.1,0.2-9.1,0.2h-0.1h-0.1h-0.1H121.2v-4
		l0,0v-93.5c-12.5-20.6-23.4-39.9-22.9-43.9c0.9-6.6,2.2-33.2,2.9-47.3c-17.1-0.5-34.2-0.8-50.5-0.9c0,0.7,0,1.4,0,2.1v257.3
		C136.7,515.1,222.7,515.6,308.6,515.6L308.6,515.6z"/>
	<path class="st1" d="M0,459.6v21.1h32.6c4.5,0,8.2-3.6,8.2-8v-21.1H8.2C3.7,451.6,0,455.2,0,459.6z M8.1,472.7v-10.8
		c0-1.3,1.1-2.4,2.5-2.4h22.3v10.9c0,1.3-1.1,2.3-2.5,2.3C30.3,472.7,8.1,472.7,8.1,472.7z"/>
	<path class="st1" d="M0,395.5v21.1h32.6c4.5,0,8.2-3.6,8.2-8v-21.1H8.2C3.7,387.6,0,391.1,0,395.5z M8.1,408.6v-10.8
		c0-1.3,1.1-2.4,2.5-2.4h22.3v10.9c0,1.3-1.1,2.3-2.5,2.3C30.3,408.6,8.1,408.6,8.1,408.6z"/>
	<path class="st1" d="M0,360.6v21.1h32.6c4.5,0,8.2-3.6,8.2-8v-21.1H8.2C3.7,352.6,0,356.2,0,360.6L0,360.6z M8.1,373.7v-10.8
		c0-1.3,1.1-2.4,2.5-2.4h22.3v10.9c0,1.3-1.1,2.3-2.5,2.3H8.1L8.1,373.7z"/>
	<path class="st1" d="M40.7,422.5h-7.9v15.2H0v8.1h32.6c4.5,0,8.2-3.6,8.2-8L40.7,422.5L40.7,422.5z"/>
	<path class="st1" d="M24.7,507.7h16v7.9H0v-7.9h16.3v-13.3H0v-7.9h40.7v7.9H27.2c-1.4,0-2.5,1.1-2.5,2.4V507.7z"/>
	<path class="st2" d="M18.5,318.6l3.5,3.7c-2.7,2.5-4,5.4-4,8.5c0,2.7,0.9,4.9,2.7,6.7c1.8,1.8,4,2.7,6.7,2.7c1.9,0,3.5-0.4,4.9-1.2
		c1.4-0.8,2.6-1.9,3.4-3.4c0.8-1.5,1.2-3.1,1.2-4.9c0-1.5-0.3-2.9-0.9-4.2c-0.6-1.3-1.6-2.7-3.1-4.2l3.8-3.6c2,2.1,3.4,4,4.2,5.8
		s1.2,3.9,1.2,6.3c0,4.3-1.4,7.9-4.1,10.6c-2.7,2.8-6.3,4.1-10.5,4.1c-2.8,0-5.2-0.6-7.4-1.9s-3.9-3-5.2-5.4c-1.3-2.3-2-4.9-2-7.6
		c0-2.3,0.5-4.5,1.5-6.6C15.3,322,16.7,320.1,18.5,318.6L18.5,318.6z M13.6,313.6V308c0-3.1,0.3-5.3,0.8-6.6
		c0.5-1.3,1.5-2.4,2.7-3.1c1.3-0.8,2.8-1.2,4.5-1.2c1.8,0,3.4,0.4,4.6,1.3s2.2,2.2,2.8,4l12.4-6.6v5.8l-11.8,6.2v0.5h11.8v5.3
		C41.4,313.6,13.6,313.6,13.6,313.6z M24.5,308.4v-1.7c0-1.7-0.2-2.9-0.7-3.5c-0.4-0.6-1.2-1-2.2-1c-0.6,0-1.1,0.2-1.6,0.5
		s-0.8,0.7-1,1.3c-0.2,0.5-0.3,1.5-0.3,2.9v1.5L24.5,308.4L24.5,308.4z M13.6,288.9v-5.1l19.4-6.5l-19.4-6.5v-5.1l27.8-4.7v5.1
		l-17.6,3l17.6,5.9v4.7l-17.6,5.9l17.6,3v5.2L13.6,288.9L13.6,288.9z M20.5,241.7v5.1c-2.1-0.3-3.7-1-4.9-2.2
		c-1.7-1.7-2.6-3.8-2.6-6.4c0-2.3,0.7-4.2,2.2-5.7s3.2-2.3,5.2-2.3c1.2,0,2.4,0.3,3.4,1s1.8,1.7,2.5,2.9c0.5-1.7,1.4-3,2.6-4
		c1.3-0.9,2.7-1.4,4.4-1.4c2.5,0,4.6,0.9,6.3,2.8c1.7,1.8,2.6,4.2,2.6,7c0,2.7-0.8,4.9-2.4,6.6c-1.6,1.7-3.8,2.6-6.7,2.8v-5.2
		c1.4-0.2,2.5-0.7,3.2-1.5s1.1-1.8,1.1-2.9c0-1.2-0.4-2.3-1.2-3.1s-1.8-1.2-2.9-1.2c-1.3,0-2.3,0.5-3.2,1.6
		c-0.9,1.1-1.3,2.7-1.3,4.7h-4.5c-0.1-1.3-0.3-2.2-0.6-2.8c-0.3-0.6-0.7-1.1-1.2-1.5c-0.5-0.3-1.1-0.5-1.7-0.5
		c-0.8,0-1.4,0.3-1.9,0.8s-0.7,1.2-0.7,2.1c0,0.8,0.2,1.4,0.7,2.1C19.1,241,19.7,241.5,20.5,241.7z M12.9,216.1l2.2-4.5l9.5,4.8
		c0-2.4,0.8-4.4,2.5-6c1.7-1.7,3.8-2.5,6.3-2.5c2.4,0,4.5,0.8,6.1,2.5c1.7,1.7,2.5,3.7,2.5,6.1c0,2.5-0.9,4.6-2.6,6.3
		c-1.7,1.7-3.7,2.5-6,2.5c-0.9,0-1.7-0.1-2.6-0.4c-0.9-0.3-2.2-0.9-4-1.8L12.9,216.1L12.9,216.1z M29.6,216.8c0,1,0.4,1.8,1.1,2.5
		s1.6,1,2.7,1c1.1,0,2-0.3,2.7-1.1c0.7-0.7,1.1-1.5,1.1-2.4c0-1-0.4-1.8-1.1-2.5c-0.7-0.7-1.6-1.1-2.7-1.1c-1.1,0-2,0.3-2.7,1
		C29.9,214.9,29.6,215.8,29.6,216.8z M12.9,194.9c0-2,0.5-3.8,1.5-5.2c1-1.5,2.5-2.6,4.6-3.4c2.1-0.8,4.9-1.2,8.5-1.2
		c3.7,0,6.6,0.4,8.6,1.2c2.1,0.8,3.6,1.9,4.5,3.3c1,1.4,1.4,3.1,1.4,5.2s-0.5,3.8-1.5,5.3c-1,1.4-2.4,2.5-4.4,3.3s-4.8,1.2-8.4,1.2
		c-5.1,0-8.8-0.8-11.1-2.4C14.2,200.5,12.9,198,12.9,194.9L12.9,194.9z M17.9,194.8c0,0.9,0.3,1.7,0.9,2.4s1.6,1.2,2.9,1.6
		c1.4,0.4,3.4,0.5,6.1,0.5c3.5,0,5.9-0.4,7.3-1.3c1.3-0.8,2-1.9,2-3.2s-0.6-2.3-1.9-3c-1.5-0.9-4.1-1.4-7.7-1.4s-6.2,0.4-7.5,1.2
		C18.6,192.4,17.9,193.5,17.9,194.8L17.9,194.8z"/>
	
		<linearGradient id="SVGID_2_" gradientUnits="userSpaceOnUse" x1="11853.9648" y1="14203.0381" x2="11853.9648" y2="20200.248" gradientTransform="matrix(2.834646e-02 0 0 2.834646e-02 -27.468 -325.6559)">
		<stop  offset="0" style="stop-color:#16B8E0"/>
		<stop  offset="1" style="stop-color:#3FAC74"/>
	</linearGradient>
	<path class="st3" d="M317.7,70.4L317.7,70.4h167.9h9.8h70.9v-36V1.3V0.1H316.8C314.1,0,311.3,0,308.6,0
		C167,0,52.1,114.2,50.8,255.5l0,0v0.2l0,0v4.3v0.1v0.1v1.8c0,92,75.3,166.6,168.2,166.6c3.5,0,7-0.1,10.5-0.3l0,0h0.2h0.5l1.3,0.6
		l0,0l-1.3-0.6l0,0l0,0h0.3l1.1-0.1l0,0c81.3-6,146.3-70.3,153.5-151.2l0,0l0.1-1.6v-0.2v-0.5c0.1-1.2,0.2-2.4,0.2-3.6v-0.3
		c0.2-2.9,0.2-5.8,0.2-8.7c0-55.1-26.8-104-68-134.3l-1.3-0.9c-0.7-0.5-1.5-1.1-2.2-1.6l-0.6-0.4c-0.8-0.5-1.5-1.1-2.3-1.6l-0.1-0.1
		l-1.3-0.9c-0.8-0.5-1.6-1-2.3-1.5l-0.6-0.4c-0.8-0.5-1.7-1-2.5-1.6L303,118c-0.8-0.4-1.5-0.9-2.3-1.3l-0.9-0.5
		c-0.8-0.4-1.6-0.9-2.3-1.3l-1.3-0.7c-0.8-0.4-1.6-0.8-2.4-1.2l-1.3-0.6c-0.7-0.4-1.5-0.7-2.2-1.1l-1.7-0.8c-0.7-0.3-1.3-0.6-2-0.9
		l-1.5-0.7c-0.7-0.3-1.4-0.6-2-0.9c-0.7-0.3-1.4-0.6-2-0.8l-1.6-0.6c-0.7-0.3-1.4-0.5-2.2-0.8l-1.6-0.6c-0.8-0.3-1.7-0.6-2.5-0.9
		l-1.2-0.4c-0.8-0.3-1.7-0.6-2.5-0.8l-1.5-0.5c-0.9-0.3-1.7-0.5-2.6-0.8l-1.1-0.3c-1-0.3-1.9-0.5-2.9-0.8l-1.1-0.3
		c-1-0.2-2-0.5-2.9-0.7l-0.9-0.2c-1-0.2-2-0.5-3.1-0.7l-1-0.2c-1-0.2-2-0.4-3.1-0.6l-0.9-0.2c-1.1-0.2-2.2-0.4-3.3-0.6l-0.8-0.1
		c-1.1-0.2-2.2-0.3-3.4-0.5l-0.8-0.1c-1.2-0.1-2.3-0.3-3.5-0.4L236,96c-1.2-0.1-2.4-0.2-3.6-0.3l-0.7-0.1c-1.2-0.1-2.4-0.2-3.6-0.2
		h-0.5c-1.2-0.1-2.4-0.1-3.6-0.1h-0.7c-1.2,0-2.5,0-3.7,0h-0.2h-0.5h-0.4h-0.6h-0.1l0,0h-0.1l0,0h-0.1h-0.1h-0.1h-0.1l0,0h-0.1l0,0
		H217l0,0h-0.1h-0.1l0,0h-0.1h-0.1h-0.1l0,0h-0.1l0,0h-0.1h-0.1l0,0h-0.1l0,0H216h-0.1l0,0h-0.1h-0.1h-0.1h-0.1h-0.1h-0.1h-0.1h-0.1
		H215h-0.1l0,0h-0.1h-0.1h-0.1h-0.1h-0.1h-0.1h-0.1h-0.1H214h-0.1c27.6-16,59.8-25.2,94-25.2C311.7,70.2,314.7,70.3,317.7,70.4
		L317.7,70.4L317.7,70.4z M306.9,120.3c-0.8-0.5-1.7-1-2.5-1.6L306.9,120.3z M123.4,277L123.4,277l-0.1-0.7l-0.2-1.6L123,274
		c-0.1-0.6-0.1-1.1-0.2-1.7l-0.1-0.6v-0.2c-0.1-0.5-0.1-1.1-0.1-1.6v-0.2v-0.2c-0.1-0.7-0.1-1.5-0.1-2.2v-0.4c0-0.6-0.1-1.3-0.1-1.9
		v-0.2v-0.3c0-0.7,0-1.4,0-2V262c0-0.8,0-1.7,0-2.5l0,0c0-0.8,0.1-1.7,0.1-2.5l0,0c0-0.8,0.1-1.6,0.2-2.5c0.1-0.8,0.1-1.6,0.2-2.5
		l0,0c0.1-0.8,0.2-1.6,0.3-2.4l0,0c0.1-0.8,0.2-1.6,0.3-2.4l0,0c0.1-0.8,0.3-1.6,0.4-2.4l0,0c0.1-0.8,0.3-1.6,0.5-2.4l0,0
		c0.2-0.8,0.3-1.6,0.5-2.4l0,0c0.2-0.8,0.4-1.6,0.6-2.3l0,0c0.2-0.8,0.4-1.5,0.6-2.3l0,0c0.2-0.8,0.4-1.5,0.7-2.3l0,0
		c0.2-0.8,0.5-1.5,0.7-2.3l0,0c0.3-0.8,0.5-1.5,0.8-2.2l0,0c0.3-0.7,0.6-1.5,0.8-2.2c0.3-0.7,0.6-1.5,0.9-2.2
		c0.3-0.7,0.6-1.4,0.9-2.2c0.3-0.7,0.7-1.4,1-2.1l0,0c0.3-0.7,0.7-1.4,1-2.1c0.4-0.7,0.7-1.4,1.1-2.1c0.4-0.7,0.8-1.4,1.1-2l0,0
		c0.4-0.7,0.8-1.3,1.2-2s0.8-1.3,1.2-2l0,0c0.4-0.7,0.8-1.3,1.3-1.9c0.4-0.6,0.9-1.3,1.3-1.9l0,0c0.4-0.6,0.9-1.3,1.4-1.9l0,0
		c0.5-0.6,0.9-1.2,1.4-1.8l0,0c0.5-0.6,1-1.2,1.5-1.8l0,0c0.5-0.6,1-1.2,1.5-1.8s1-1.2,1.5-1.7l0,0c0.5-0.6,1-1.1,1.6-1.7l0,0
		c0.5-0.6,1.1-1.1,1.6-1.7l0,0c0.5-0.5,1.1-1.1,1.7-1.6l0,0c0.6-0.5,1.1-1.1,1.7-1.6l0,0c0.6-0.5,1.2-1,1.7-1.5
		c0.6-0.5,1.2-1,1.8-1.5s1.2-1,1.8-1.5l0,0c0.6-0.5,1.2-1,1.8-1.4l0,0c0.6-0.5,1.2-0.9,1.9-1.4c0.6-0.4,1.3-0.9,1.9-1.3
		c0.6-0.4,1.3-0.9,1.9-1.3l0,0c0.7-0.4,1.3-0.8,2-1.2s1.3-0.8,2-1.2s1.4-0.8,2-1.1l0,0c0.7-0.4,1.4-0.7,2.1-1.1
		c0.7-0.4,1.4-0.7,2.1-1l0,0c0.7-0.3,1.4-0.7,2.1-1c0.7-0.3,1.4-0.6,2.2-0.9c0.7-0.3,1.5-0.6,2.2-0.9s1.5-0.6,2.2-0.8l0,0
		c0.7-0.3,1.5-0.5,2.2-0.8s1.5-0.5,2.3-0.7s1.5-0.5,2.3-0.7s1.5-0.4,2.3-0.6c0.8-0.2,1.6-0.4,2.3-0.6c0.8-0.2,1.6-0.4,2.4-0.5l0,0
		c0.8-0.2,1.6-0.3,2.4-0.5c0.8-0.1,1.6-0.3,2.4-0.4c0.8-0.1,1.6-0.2,2.4-0.3c0.8-0.1,1.6-0.2,2.4-0.3c0.8-0.1,1.6-0.2,2.5-0.2
		c0.8-0.1,1.6-0.1,2.5-0.2c0.8,0,1.7-0.1,2.5-0.1s1.7,0,2.5,0s1.7,0,2.5,0s1.7,0.1,2.5,0.1s1.6,0.1,2.5,0.2c0.8,0.1,1.6,0.1,2.5,0.2
		s1.6,0.2,2.4,0.3c0.8,0.1,1.6,0.2,2.4,0.3c0.8,0.1,1.6,0.3,2.4,0.4c0.8,0.1,1.6,0.3,2.4,0.5c0.8,0.2,1.6,0.3,2.4,0.5
		c0.8,0.2,1.6,0.4,2.3,0.6c0.8,0.2,1.5,0.4,2.3,0.6c0.8,0.2,1.5,0.4,2.3,0.7c0.8,0.2,1.5,0.5,2.3,0.7c0.8,0.3,1.5,0.5,2.2,0.8
		s1.5,0.6,2.2,0.8c0.7,0.3,1.5,0.6,2.2,0.9c0.7,0.3,1.4,0.6,2.2,0.9c0.7,0.3,1.4,0.7,2.1,1s1.4,0.7,2.1,1c0.7,0.4,1.4,0.7,2.1,1.1
		c0.7,0.4,1.4,0.8,2,1.1l0,0c0.7,0.4,1.3,0.8,2,1.2s1.3,0.8,2,1.2s1.3,0.8,1.9,1.3l0,0c0.6,0.4,1.3,0.9,1.9,1.3l0,0
		c0.6,0.4,1.3,0.9,1.9,1.4s1.2,0.9,1.8,1.4c0.6,0.5,1.2,1,1.8,1.5s1.2,1,1.8,1.5l0,0c0.6,0.5,1.2,1,1.7,1.5c0.6,0.5,1.1,1,1.7,1.6
		c0.6,0.5,1.1,1.1,1.7,1.6l0,0c0.5,0.5,1.1,1.1,1.6,1.7c0.5,0.6,1.1,1.1,1.6,1.7l0,0c0.5,0.6,1,1.2,1.5,1.7c0.5,0.6,1,1.2,1.5,1.8
		s1,1.2,1.5,1.8l0,0c0.5,0.6,0.9,1.2,1.4,1.8l0,0c0.5,0.6,0.9,1.2,1.4,1.9l0,0c0.4,0.6,0.9,1.3,1.3,1.9c0.4,0.6,0.9,1.3,1.3,1.9l0,0
		c0.4,0.7,0.8,1.3,1.2,2l0,0c0.4,0.7,0.8,1.3,1.2,2l0,0c0.4,0.7,0.8,1.4,1.1,2s0.7,1.4,1.1,2.1c0.4,0.7,0.7,1.4,1,2.1l0,0
		c0.3,0.7,0.7,1.4,1,2.1c0.3,0.7,0.6,1.4,0.9,2.2c0.3,0.7,0.6,1.5,0.9,2.2s0.6,1.5,0.8,2.2l0,0c0.3,0.7,0.5,1.5,0.8,2.2l0,0
		c0.3,0.8,0.5,1.5,0.7,2.3l0,0c0.2,0.8,0.5,1.5,0.7,2.3l0,0c0.2,0.8,0.4,1.5,0.6,2.3l0,0c0.2,0.8,0.4,1.6,0.6,2.3l0,0
		c0.2,0.8,0.3,1.6,0.5,2.4l0,0c0.2,0.8,0.3,1.6,0.5,2.4l0,0c0.1,0.8,0.3,1.6,0.4,2.4l0,0c0.1,0.8,0.2,1.6,0.3,2.4l0,0
		c0.1,0.8,0.2,1.6,0.3,2.4l0,0c0.1,0.8,0.2,1.6,0.2,2.5c0.1,0.8,0.1,1.6,0.2,2.5l0,0c0,0.8,0.1,1.7,0.1,2.5l0,0c0,0.8,0,1.7,0,2.5
		c0,1.7,0,3.3-0.1,5l0,0c0,0.8-0.1,1.6-0.2,2.5l0,0v0.1c-0.1,0.8-0.1,1.5-0.2,2.3l0,0l0,0v0.2c-0.1,0.7-0.2,1.4-0.2,2.1v0.1v0.1l0,0
		c-0.1,0.7-0.2,1.4-0.3,2.1v0.2l0,0v0.2c-7.2,46.4-47.3,81.9-95.7,81.9C170.7,358.9,130.6,323.4,123.4,277L123.4,277z"/>
	
		<linearGradient id="SVGID_3_" gradientUnits="userSpaceOnUse" x1="7226.2827" y1="16782.5254" x2="12149.2734" y2="21705.7344" gradientTransform="matrix(2.834646e-02 0 0 2.834646e-02 -27.468 -325.6559)">
		<stop  offset="0" style="stop-color:#125872"/>
		<stop  offset="1" style="stop-color:#3FAC74"/>
	</linearGradient>
	<path class="st4" d="M385.2,277c0.4-4.9,0.7-9.9,0.7-15c0-92-74.6-166.6-166.6-166.6c-1.5,0-3,0-4.5,0.1
		c-59.4,34.5-94.1,95.8-92.4,164.1c0,0.4,0,0.8,0.1,1.2c0.7-52.9,43.8-95.6,96.9-95.6c53.5,0,96.9,43.4,96.9,96.9
		c0,5.1-0.4,10.1-1.2,15h70.1V277z"/>
</g>
</svg>
