<svg xmlns="http://www.w3.org/2000/svg" width="17.026" height="17.042" viewBox="0 0 17.026 17.042">
    <g>
        <path fill="none" stroke="#848484" stroke-linecap="round" stroke-linejoin="round" d="M25.2 138.785a8 8 0 0 1 8.278-11.985 8.1 8.1 0 0 1 6.449 9.358 8 8 0 0 1-9.483 6.347" transform="translate(-23.549 -126.148)"/>
        <g>
            <g>
                <path fill="#848484" d="M35.02 133.935H32.8v-2.22a.74.74 0 0 0-1.48 0v2.22H29.1a.74.74 0 1 0 0 1.479h2.219v2.22a.74.74 0 0 0 1.48 0v-2.22h2.221a.74.74 0 1 0 0-1.479z" transform="translate(-23.549 -126.148)"/>
            </g>
        </g>
    </g>
</svg>
