<svg id="SvgjsSvg1001" width="288" height="288" xmlns="http://www.w3.org/2000/svg" version="1.1" xmlns:xlink="http://www.w3.org/1999/xlink" xmlns:svgjs="http://svgjs.com/svgjs"><defs id="SvgjsDefs1002"></defs><g id="SvgjsG1008"><svg xmlns="http://www.w3.org/2000/svg" width="288" height="288" viewBox="0 0 16 16"><g transform="translate(-22.263 -52.807)" fill="#000000" class="color000 svgShape"><path fill="#fcfcfc" d="M37.781 68.807a.481.481 0 0 1-.34-.139l-4.667-4.613a.474.474 0 0 1 0-.675.485.485 0 0 1 .681 0l4.667 4.612a.476.476 0 0 1 0 .676.483.483 0 0 1-.341.139z" class="color848484 svgShape"></path><path fill="#fcfcfc" d="M28.709 65.567a6.483 6.483 0 0 1-1.317-.134.422.422 0 1 1 .172-.826 5.571 5.571 0 0 0 4.235-.821 5.548 5.548 0 0 0-2.119-10.049 5.6 5.6 0 0 0-5.689 2.463 5.509 5.509 0 0 0-.084 5.829.419.419 0 0 1-.146.578.426.426 0 0 1-.583-.145 6.345 6.345 0 0 1 .1-6.717 6.242 6.242 0 0 1 .58-.764 6.493 6.493 0 0 1 5.975-2.076 6.379 6.379 0 0 1 4.136 2.683 6.293 6.293 0 0 1-1.695 8.9 6.416 6.416 0 0 1-3.565 1.079z" class="color848484 svgShape"></path></g></svg></g></svg>